
        <svg xmlns="http://www.w3.org/2000/svg" xmlns:xlink="http://www.w3.org/1999/xlink" version="1.1" width="3285.714285714286" 
        height="996.3990805679405" viewBox="0 0 3285.714285714286 996.3990805679405">
			<rect fill="#202a45" width="3285.714285714286" height="996.3990805679405"/>
			<g transform="scale(14.285714285714286) translate(10, 10)">
				<defs id="SvgjsDefs4384"></defs><g id="SvgjsG4385" featureKey="textGroupContainer" transform="matrix(1,0,0,1,0,1)" fill="#ffffff"><rect xmlns="http://www.w3.org/2000/svg" y="0" x="0" height="1" width="1" opacity="0"></rect><rect xmlns="http://www.w3.org/2000/svg" y="45.92857142857143" x="0" width="16" height="2"></rect><rect xmlns="http://www.w3.org/2000/svg" y="45.92857142857143" x="194" width="16" height="2"></rect></g><g id="SvgjsG4386" featureKey="YhTCwJ-0" transform="matrix(1.6567265014684311,0,0,1.6567265014684311,4.80119300942109,-8.084825516763246)" fill="#ffffff"><path d="M1.98 5.84 l3.22 11.76 l0.04 0 l3.48 -11.76 l1.88 0 l3.46 11.76 l0.04 0 l3.28 -11.76 l1.76 0 l-4.16 14.16 l-1.82 0 l-3.5 -12 l-0.04 0 l-3.52 12 l-1.84 0 l-4.14 -14.16 l1.86 0 z M24.340000000000003 10.4 q2.04 0 2.97 0.96 t0.95 2.9 l0 4.2 q0 0.6 0.14 1.54 l-1.5 0 q-0.1 -0.18 -0.1 -1.4 l-0.04 0 q-1.06 1.6 -3.08 1.64 q-1.54 0 -2.51 -0.77 t-0.97 -2.01 q0 -1.7 1.4 -2.49 t4.38 -0.79 l0.72 0 l0 -0.26 q0 -2.04 -2.32 -2.08 q-1.68 0 -2.78 1.02 l-0.98 -1.02 q1.44 -1.4 3.72 -1.44 z M21.880000000000003 17.3 q0 1.58 2.06 1.62 q1.22 0 1.99 -0.78 t0.77 -2.28 l0 -0.36 l-1.72 0 q-1.38 0 -2.23 0.44 t-0.87 1.36 z M40.46 4.880000000000001 l0 15.12 l-1.56 0 l0 -1.66 l-0.04 0 q-0.48 0.9 -1.46 1.4 t-2.14 0.5 q-1.98 0 -3.31 -1.41 t-1.37 -3.51 q0 -2.14 1.37 -3.52 t3.55 -1.4 q2.02 0 3.36 1.6 l0.04 0 l0 -7.12 l1.56 0 z M32.26 15.32 q0 1.54 0.93 2.5 t2.39 0.98 q1.46 0 2.37 -0.96 t0.95 -2.52 q0 -1.52 -0.93 -2.5 t-2.41 -0.98 q-1.44 0 -2.35 0.97 t-0.95 2.51 z M47.6 10.4 q2.08 0 3.25 1.31 t1.19 3.71 l0 0.38 l-7.56 0 q0.12 1.3 0.98 2.14 t2.1 0.86 q1.9 0 2.96 -1.42 l1.18 0.92 q-0.74 0.96 -1.74 1.45 t-2.4 0.49 q-2.14 0 -3.44 -1.39 t-1.32 -3.53 q0 -2.12 1.33 -3.5 t3.47 -1.42 z M50.36 14.48 q-0.06 -1.22 -0.79 -1.93 t-2.05 -0.71 q-1.2 0 -2.02 0.68 t-1.02 1.96 l5.88 0 z M64.16000000000001 5.84 q2.78 0 4.09 0.92 t1.31 2.96 q0 1.5 -0.89 2.47 t-2.65 1.29 l4.02 6.52 l-2.06 0 l-3.84 -6.36 l-2.16 0 l0 6.36 l-1.68 0 l0 -14.16 l3.86 0 z M63.980000000000004 12.08 q1.98 0 2.88 -0.55 t0.9 -1.79 q0 -1.2 -0.81 -1.77 t-2.51 -0.57 l-2.46 0 l0 4.68 l2 0 z M76.7 10.4 q2.18 0 3.56 1.35 t1.44 3.57 q0 2.14 -1.4 3.51 t-3.6 1.41 q-2.2 0 -3.58 -1.39 t-1.42 -3.53 q0 -2.16 1.4 -3.53 t3.6 -1.39 z M73.38000000000001 15.32 q0 1.54 0.93 2.49 t2.39 0.99 q1.46 0 2.38 -0.97 t0.94 -2.51 q0 -1.52 -0.93 -2.5 t-2.41 -0.98 q-1.44 0 -2.36 0.97 t-0.94 2.51 z M88.54 10.4 q1.08 0 1.99 0.5 t1.33 1.34 l0.04 0 l0 -1.6 l1.56 0 l0 9.04 q0 2.4 -1.28 3.74 t-3.82 1.38 q-1.38 0 -2.5 -0.4 t-2.1 -1.38 l1.12 -1.28 q1.5 1.62 3.48 1.62 q3.54 0 3.54 -3.76 l0 -1.22 l-0.04 0 q-0.52 0.84 -1.44 1.29 t-1.88 0.45 q-2.16 0 -3.54 -1.35 t-1.42 -3.45 q0 -2.26 1.36 -3.58 t3.6 -1.34 z M85.26 15.32 q0 1.4 0.96 2.37 t2.34 0.99 q1.52 0 2.43 -0.98 t0.91 -2.42 q0 -1.54 -0.93 -2.48 t-2.43 -0.96 q-1.42 0 -2.35 1 t-0.93 2.48 z M100.6 10.4 q2.08 0 3.25 1.31 t1.19 3.71 l0 0.38 l-7.56 0 q0.12 1.3 0.98 2.14 t2.1 0.86 q1.9 0 2.96 -1.42 l1.18 0.92 q-0.74 0.96 -1.74 1.45 t-2.4 0.49 q-2.14 0 -3.44 -1.39 t-1.32 -3.53 q0 -2.12 1.33 -3.5 t3.47 -1.42 z M103.36 14.48 q-0.06 -1.22 -0.79 -1.93 t-2.05 -0.71 q-1.2 0 -2.02 0.68 t-1.02 1.96 l5.88 0 z M112.06 10.4 q0.36 0 0.64 0.1 l-0.1 1.58 q-0.44 -0.12 -0.84 -0.12 q-1.36 0 -2.05 0.89 t-0.69 2.51 l0 4.64 l-1.56 0 l0 -7.28 q0 -0.28 -0.08 -2.08 l1.48 0 q0.04 1.4 0.04 1.54 l0.04 0 q0.38 -0.8 1.23 -1.29 t1.89 -0.49 z M117.36000000000001 10.4 q2.24 0.02 3.18 1.7 l-1.3 0.86 q-0.68 -1.12 -1.98 -1.12 q-0.78 0 -1.31 0.36 t-0.53 0.94 q0 0.94 2.34 1.36 q1.68 0.3 2.38 0.98 t0.7 1.82 q0 1.38 -1.02 2.16 t-2.72 0.78 q-1.32 0 -2.17 -0.42 t-1.47 -1.32 l1.24 -0.96 q0.58 0.7 1.14 0.98 t1.26 0.28 q0.9 0 1.48 -0.39 t0.58 -1.05 q0 -0.68 -0.61 -1.02 t-2.03 -0.62 q-1.4 -0.3 -2.03 -0.9 t-0.63 -1.66 q0 -1.18 0.97 -1.96 t2.53 -0.8 z"></path></g><g id="SvgjsG4387" featureKey="duLK5n-0" transform="matrix(0.453490265818277,0,0,0.453490265818277,20.818603634183475,40.587431708000004)" fill="#ffffff"><path d="M14.68 20 l-4.2 -7.34 l-4.18 7.34 l-1.92 0 l-3.98 -14.24 l1.88 0 l3.3 11.9 l3.9 -6.84 l2.02 0 l3.88 6.84 l3.32 -11.9 l1.88 0 l-3.98 14.24 l-1.92 0 z M35.739999999999995 20 l0 -14.24 l9 0 l0 1.72 l-7.2 0 l0 3.34 l6.28 0 l0 1.78 l-6.28 0 l0 5.64 l7.02 0 l0 1.76 l-8.82 0 z M59.779999999999994 20 l0 -14.24 l5.12 0 c0.9 0 1.76 0.36 2.38 1 c0.64 0.62 1 1.48 1 2.38 c0 0.7 -0.2 1.36 -0.6 1.92 l-0.02 0.02 l0.02 0.02 c0.56 0.22 1.08 0.56 1.5 1 c0.88 0.86 1.36 2.02 1.36 3.26 c0 1.22 -0.48 2.38 -1.36 3.26 c-0.86 0.86 -2.02 1.38 -3.24 1.38 l-6.16 0 z M61.559999999999995 18.26 l4.38 0 c1.56 -0.04 2.82 -1.36 2.82 -2.9 c0 -1.56 -1.26 -2.84 -2.82 -2.86 l-4.38 0 l0 5.76 z M61.559999999999995 10.76 l3.34 0 c0.88 -0.02 1.6 -0.74 1.6 -1.62 s-0.7 -1.6 -1.6 -1.64 l-3.34 0 l0 3.26 z M103 20 l0 -14.24 l4.6 0 c4.04 0 7.32 3.2 7.32 7.12 s-3.28 7.12 -7.32 7.12 l-4.6 0 z M107.60000000000001 18.26 c3.06 0 5.54 -2.44 5.54 -5.38 s-2.48 -5.38 -5.54 -5.38 l-2.82 0 l0 10.76 l2.82 0 z M130 20 l0 -14.24 l9 0 l0 1.72 l-7.2 0 l0 3.34 l6.28 0 l0 1.78 l-6.28 0 l0 5.64 l7.02 0 l0 1.76 l-8.82 0 z M153.42 5.76 l1.94 0 l4.48 11.66 l4.5 -11.66 l1.92 0 l-5.48 14.24 l-1.86 0 z M180.85999999999999 20 l0 -14.24 l9 0 l0 1.72 l-7.2 0 l0 3.34 l6.28 0 l0 1.78 l-6.28 0 l0 5.64 l7.02 0 l0 1.76 l-8.82 0 z M205.09999999999997 20 l0 -14.24 l1.8 0 l0 12.5 l7.8 0 l0 1.74 l-9.6 0 z M235.26 5.32 c4.1 0 7.46 3.34 7.46 7.46 c0 4.1 -3.36 7.42 -7.46 7.42 s-7.44 -3.32 -7.44 -7.42 c0 -4.12 3.34 -7.46 7.44 -7.46 z M235.26 18.44 c3.12 0 5.64 -2.56 5.64 -5.66 c0 -3.12 -2.52 -5.7 -5.64 -5.7 s-5.64 2.58 -5.64 5.7 c0 3.1 2.52 5.66 5.64 5.66 z M257.86 20 l0 -14.24 l4.96 0 c0.9 0 1.76 0.36 2.4 1 s1 1.5 1 2.4 c0 1.88 -1.54 3.38 -3.4 3.38 l-3.18 0 l0 7.46 l-1.78 0 z M262.82 10.8 c0.88 0 1.6 -0.74 1.6 -1.64 s-0.72 -1.66 -1.6 -1.66 l-3.18 0 l0 3.3 l3.18 0 z M294.28000000000003 20 l-1.78 0 l0 -11.36 l-4.54 6.2 l-4.52 -6.2 l0 11.36 l-1.78 0 l0 -14.24 l1.88 0 l4.42 6.08 l4.42 -6.08 l1.9 0 l0 14.24 z M310.14000000000004 20 l0 -14.24 l9 0 l0 1.72 l-7.2 0 l0 3.34 l6.28 0 l0 1.78 l-6.28 0 l0 5.64 l7.02 0 l0 1.76 l-8.82 0 z M344.1 20 l-7.62 -11.26 l0 11.26 l-1.8 0 l0 -14.24 l1.96 0 l7.6 11.26 l0 -11.26 l1.8 0 l0 14.24 l-1.94 0 z M365.3 20 l0 -12.48 l-3.76 0 l0 -1.76 l9.32 0 l0 1.76 l-3.76 0 l0 12.48 l-1.8 0 z"></path></g>
			</g>
		</svg>
	